<svg width="61" height="70" viewBox="0 0 61 70" fill="none" xmlns="http://www.w3.org/2000/svg">
    <path d="M59.5003 0H12.8336C12.1893 0 11.667 0.522375 11.667 1.16667V12.8333C11.6708 16.0533 14.2803 18.6629 17.5003 18.6667H22.167V22.1667H21.0003C21.0015 21.5495 20.5218 21.0382 19.906 21L1.23931 19.8333C0.59618 19.7934 0.0424509 20.2824 0.00249259 20.9255C0.00103425 20.9503 0.000305176 20.9751 0.000305176 21V25.6667C0.000305176 26.311 0.52268 26.8333 1.16697 26.8333H1.23931L19.906 25.6667C20.5218 25.6285 21.0015 25.1172 21.0003 24.5H22.167V26.8333C22.167 27.4776 22.6893 28 23.3336 28H25.667V31.5C25.667 32.1443 26.1893 32.6667 26.8336 32.6667H28.0003V33.8333C28.0003 34.4776 28.5227 35 29.167 35C29.8113 35 30.3336 34.4776 30.3336 33.8333V32.6667H31.5003C32.1446 32.6667 32.667 32.1443 32.667 31.5V28H35.0003C35.6446 28 36.167 27.4776 36.167 26.8333V18.6667H42.0003V51.3333H30.3336C33.5536 51.3295 36.1632 48.72 36.167 45.5V38.5C36.167 37.8557 35.6446 37.3333 35.0003 37.3333H23.3336C22.6893 37.3333 22.167 37.8557 22.167 38.5V39.6667H21.0003C20.356 39.6667 19.8336 40.189 19.8336 40.8333C19.8336 41.4776 20.356 42 21.0003 42H22.167V45.5C22.1708 48.72 24.7803 51.3295 28.0003 51.3333H18.667C15.447 51.3371 12.8374 53.9467 12.8336 57.1667V68.8333C12.8336 69.4776 13.356 70 14.0003 70H59.5003C60.1446 70 60.667 69.4776 60.667 68.8333V1.16667C60.667 0.522375 60.1446 0 59.5003 0ZM18.667 23.4045L2.33364 24.4253V22.2413L18.667 23.2622V23.4045ZM24.5003 45.5V39.6667H33.8336V45.5C33.8336 47.433 32.2667 49 30.3336 49H28.0003C26.0673 49 24.5003 47.433 24.5003 45.5ZM42.0003 67.6667H15.167V57.1667C15.167 55.2336 16.734 53.6667 18.667 53.6667H42.0003V67.6667ZM30.3336 30.3333H28.0003V28H30.3336V30.3333ZM33.8336 25.6667H24.5003V18.6667H33.8336V25.6667ZM58.3336 67.6667H44.3336V17.5C44.3336 16.8557 43.8113 16.3333 43.167 16.3333H17.5003C15.5673 16.3333 14.0003 14.7664 14.0003 12.8333V2.33333H58.3336V67.6667Z" fill="white"/>
    <path d="M50.167 15.1667C53.3886 15.1667 56.0003 12.5549 56.0003 9.33333C56.0003 6.11173 53.3886 3.5 50.167 3.5C46.9454 3.5 44.3336 6.11173 44.3336 9.33333C44.3374 12.5533 46.947 15.1629 50.167 15.1667ZM50.167 8.16667H46.8816C47.3743 6.77323 48.6891 5.83946 50.167 5.83333C52.1 5.82531 53.6734 7.38588 53.6814 9.31875C53.6894 11.2518 52.1289 12.8252 50.196 12.8332C48.7075 12.8393 47.3779 11.9034 46.8816 10.4999H50.167C50.8113 10.4999 51.3336 9.97748 51.3336 9.33319C51.3336 8.6889 50.8113 8.16667 50.167 8.16667Z" fill="white"/>
    <path d="M47.8336 25.6667C47.1894 25.6667 46.667 26.189 46.667 26.8333V29.1667C46.667 29.8109 47.1894 30.3333 47.8336 30.3333C48.4779 30.3333 49.0003 29.8109 49.0003 29.1667V26.8333C49.0003 26.189 48.4779 25.6667 47.8336 25.6667Z" fill="white"/>
    <path d="M47.8336 32.6667C47.1894 32.6667 46.667 33.189 46.667 33.8333V36.1667C46.667 36.8109 47.1894 37.3333 47.8336 37.3333C48.4779 37.3333 49.0003 36.8109 49.0003 36.1667V33.8333C49.0003 33.189 48.4779 32.6667 47.8336 32.6667Z" fill="white"/>
    <path d="M47.8336 39.6667C47.1894 39.6667 46.667 40.189 46.667 40.8333V43.1667C46.667 43.8109 47.1894 44.3333 47.8336 44.3333C48.4779 44.3333 49.0003 43.8109 49.0003 43.1667V40.8333C49.0003 40.189 48.4779 39.6667 47.8336 39.6667Z" fill="white"/>
</svg>
