<svg width="65" height="70" viewBox="0 0 65 70" fill="none" xmlns="http://www.w3.org/2000/svg">
    <path d="M63.9818 36.7881L60.8931 27.2846C59.3367 22.4955 56.5519 18.1657 52.8395 14.7633C49.1274 11.3606 44.5718 8.9626 39.6653 7.82825L32.8827 6.26009C32.8812 6.25982 14.0624 2.16551 14.0624 2.16551C13.5073 2.04438 12.961 2.39656 12.8402 2.95068C12.7196 3.50508 13.0711 4.05222 13.6254 4.17281L32.4197 8.26178C32.4198 8.26178 32.4592 8.27094 32.4592 8.27094C36.7471 9.21567 39.9181 12.7708 40.3537 17.1265C40.8864 22.4508 42.04 28.3707 43.783 34.722C46.1021 43.1724 45.989 50.2363 45.4859 54.6737C45.0903 58.1632 44.3987 60.6199 44.0433 61.7195H30.3276C29.7602 61.7195 29.3004 62.1793 29.3004 62.7467C29.3004 63.3141 29.7602 63.7738 30.3276 63.7738H44.1903L46.3644 67.4193C46.4546 67.5707 46.4054 67.7037 46.368 67.7694C46.3306 67.8352 46.2416 67.9455 46.0654 67.9455H2.40697C2.23074 67.9455 2.14174 67.8352 2.10428 67.7694C2.06695 67.7038 2.01774 67.5707 2.10797 67.4194L4.28207 63.7738H26.2188C26.7862 63.7738 27.246 63.3141 27.246 62.7467C27.246 62.1793 26.7862 61.7195 26.2188 61.7195H4.45884C2.8025 56.239 2.171 51.3613 2.47984 46.4321C2.76736 41.8426 3.83117 37.776 4.95718 33.4707C6.3595 28.1089 7.80968 22.5647 7.95487 15.4027C8.0354 11.4391 5.62095 6.27349 3.58125 2.63801C3.44248 2.29211 3.6265 2.0467 3.9981 2.07842L9.61204 3.29986C10.1672 3.42099 10.7136 3.06867 10.8342 2.51469C10.9547 1.96029 10.6032 1.41315 10.049 1.29256L4.43492 0.0705721C2.45893 -0.437063 0.726157 1.90137 1.78955 3.64275C3.35703 6.43687 5.97587 11.6747 5.90109 15.3606C5.76068 22.2797 4.34181 27.7044 2.96971 32.9505C0.722876 41.5408 -1.39981 49.6607 2.58211 62.6134L0.343619 66.3671C-0.104817 67.1192 -0.114524 68.0226 0.317916 68.784C0.750493 69.5454 1.53129 70 2.40697 70H46.0655C46.9411 70 47.722 69.5455 48.1545 68.784C48.587 68.0228 48.5773 67.1191 48.1289 66.367L45.9049 62.6377C46.2605 61.5959 47.0628 58.9351 47.5171 54.9942C48.0514 50.3592 48.1811 42.9853 45.7644 34.1781C44.217 28.5396 43.145 23.2576 42.5677 18.4479C46.9621 19.9807 50.4733 23.3905 52.1168 27.8016C52.572 29.062 54.5238 28.3223 54.0421 27.0844C52.0679 21.7856 47.7099 17.7658 42.3036 16.21C41.9135 13.7629 40.8013 11.5566 39.1745 9.82324L39.2028 9.82981C43.7646 10.8845 48.0001 13.1142 51.4516 16.2776C54.9032 19.441 57.4923 23.4668 58.9395 27.9196L62.0282 37.423C62.2222 38.0198 62.1219 38.6533 61.753 39.1611C61.3842 39.6689 60.8128 39.96 60.1853 39.96C59.3801 39.96 58.6503 39.453 58.3694 38.6986L55.3088 30.4835C55.1106 29.9518 54.5186 29.6815 53.9876 29.8794C53.4559 30.0775 53.1854 30.6691 53.3835 31.2005L56.4441 39.4155C57.0231 40.9699 58.5266 42.0141 60.1853 42.0141C61.4781 42.0141 62.6554 41.4142 63.4153 40.3683C64.1746 39.3228 64.3813 38.0177 63.9818 36.7881V36.7881Z" fill="white"/>
    <path d="M29.5225 50.8917C32.006 50.8917 34.0264 48.8713 34.0264 46.3878V23.4679C34.0264 20.9843 32.006 18.9638 29.5225 18.9638C27.039 18.9638 25.0186 20.9843 25.0186 23.4679V46.3878C25.0184 48.8713 27.039 50.8917 29.5225 50.8917ZM29.5225 21.0146C30.8752 21.0146 31.9756 22.1152 31.9756 23.4679V46.3878C31.9756 47.7405 30.8751 48.8409 29.5225 48.8409C28.1698 48.8409 27.0694 47.7403 27.0694 46.3878V45.3031H28.7591C29.3255 45.3031 29.7845 44.8441 29.7845 44.2777C29.7845 43.7112 29.3255 43.2523 28.7591 43.2523H27.0694V39.5219H28.7591C29.3255 39.5219 29.7845 39.063 29.7845 38.4965C29.7845 37.9301 29.3255 37.4711 28.7591 37.4711H27.0694V33.7408H28.7591C29.3255 33.7408 29.7845 33.2818 29.7845 32.7154C29.7845 32.149 29.3255 31.69 28.7591 31.69H27.0694V27.9596H28.7591C29.3255 27.9596 29.7845 27.5007 29.7845 26.9342C29.7845 26.3678 29.3255 25.9089 28.7591 25.9089H27.0694V23.4679C27.0692 22.1152 28.1698 21.0146 29.5225 21.0146Z" fill="white"/>
</svg>
